<svg version="1.1" xmlns="http://www.w3.org/2000/svg" style="display: block;" viewBox="0 0 2048 2048" width="1024" height="1024" preserveAspectRatio="none">
<path transform="translate(0,0)" fill="rgb(36,36,36)" d="M 992.731 646.44 C 1180.69 637.555 1373.13 719.514 1515.09 839.274 C 1538.86 859.403 1562.04 880.23 1584.59 901.727 C 1605.85 922.364 1675.73 993.847 1677.31 1022 C 1678.44 1042.1 1649.46 1071.57 1636.79 1086.14 C 1603.81 1123.74 1568.18 1158.92 1530.17 1191.43 C 1392.32 1310.11 1241.4 1379.02 1059.17 1391.84 C 1036.85 1392.14 1005.94 1392.86 984.013 1391.48 C 821.145 1381.25 678.416 1322.24 550.505 1221.99 C 532.908 1208.28 515.752 1194.01 499.063 1179.21 C 471.538 1154.55 373.796 1062.47 370.439 1027.44 C 368.313 1005.26 393.776 979.302 407.348 963.52 C 558.085 788.241 758.842 663.871 992.731 646.44 z M 462.766 1022.88 C 469.007 1032.15 482.486 1047.25 490.105 1055.66 C 531.093 1100.9 578.901 1145.54 628.555 1181.07 C 656.868 1201.58 686.777 1219.78 717.996 1235.52 C 731.935 1242.65 750.355 1250.48 763.374 1257.68 C 759.208 1251.64 754.077 1246.39 749.449 1240.71 C 741.845 1231.28 734.769 1221.43 728.255 1211.21 C 682.114 1137.72 664.658 1049.8 679.221 964.257 C 687.459 914.288 705.938 866.561 733.498 824.073 C 737.304 818.296 758.311 791.379 759.019 789.252 C 662.007 836.466 574.401 900.946 500.485 979.538 C 492.395 988.175 469.325 1013 462.766 1022.88 z M 998.114 751.002 C 849.201 765.009 739.816 897.049 753.757 1045.97 C 767.699 1194.89 899.69 1304.33 1048.62 1290.46 C 1197.63 1276.57 1307.16 1144.48 1293.21 995.467 C 1279.26 846.454 1147.12 736.986 998.114 751.002 z M 1277.22 1260.29 C 1331.95 1234 1366.28 1215.73 1416.47 1180.19 C 1472.37 1137.97 1522.77 1093.22 1568.34 1039.83 C 1573.42 1033.86 1578.76 1027.98 1584.12 1022.27 C 1518.93 941.096 1412.85 852.809 1319.88 804.934 C 1314.58 802.204 1289.72 789.374 1285.38 788.773 C 1293.75 795.787 1303.48 809.04 1309.72 818.339 C 1343.46 868.602 1365.91 932.362 1371.12 992.935 C 1378.64 1080.41 1349.89 1174.01 1294.66 1242.36 C 1288.72 1249.71 1283.89 1254.02 1277.22 1260.29 z"/>
<path transform="translate(0,0)" fill="rgb(36,36,36)" d="M 1004.86 832.275 C 1107.78 821.559 1199.95 896.179 1210.9 999.078 C 1221.85 1101.98 1147.43 1194.32 1044.56 1205.49 C 941.357 1216.7 848.662 1142 837.681 1038.78 C 826.701 935.555 901.608 843.025 1004.86 832.275 z"/>
<path transform="translate(0,0)" fill="rgb(36,36,36)" d="M 420.595 490.707 C 430.639 443.674 464.94 449.99 502.613 449.954 L 569.623 449.927 C 593.638 449.929 617.666 449.93 641.67 449.987 C 646.226 449.998 657.358 450.024 661.361 451.273 C 701.001 463.633 699.576 525.016 655.381 527.722 C 637.1 528.842 618.899 528.148 600.901 528.139 L 496.92 528.056 L 497.076 637.663 C 497.094 651.452 497.033 665.337 497.124 679.19 C 497.24 696.983 492.56 709.545 476.545 719.026 C 460.828 728.33 441.543 723.977 429.675 710.522 C 424.922 705.19 421.901 698.539 421.014 691.451 C 419.258 684.767 419.928 625.355 419.934 614.732 L 420.012 537.123 C 420.035 522.979 419.627 504.528 420.595 490.707 z"/>
<path transform="translate(0,0)" fill="rgb(0,0,0)" d="M 421.014 691.451 C 419.258 684.767 419.928 625.355 419.934 614.732 L 420.012 537.123 C 420.035 522.979 419.627 504.528 420.595 490.707 C 421.599 498.752 422.912 508.036 422.925 516.078 C 423.014 572.554 423.472 629.106 422.674 685.571 C 422.64 687.971 422.081 689.404 421.014 691.451 z"/>
<path transform="translate(0,0)" fill="rgb(36,36,36)" d="M 1386.69 450.246 C 1450.87 447.809 1517.92 451.164 1582.39 450.372 C 1587.31 450.312 1595.21 453.628 1599.48 456.045 C 1610.69 462.283 1618.91 472.778 1622.28 485.156 C 1624.95 494.645 1624.02 575.603 1624.02 590.005 L 1624 652.022 C 1623.98 684.635 1630.04 713.533 1590.77 723.969 C 1589.4 724.02 1588.02 724.036 1586.65 724.019 C 1539.94 723.235 1548.83 664.918 1548.84 633.184 C 1548.72 598.137 1548.83 563.091 1549.17 528.046 L 1442.41 528.121 C 1426.6 528.158 1383.49 530.647 1370.72 523.458 C 1361.74 518.285 1355.3 509.64 1352.9 499.559 C 1347.21 475.105 1363.15 455.397 1386.69 450.246 z"/>
<path transform="translate(0,0)" fill="rgb(36,36,36)" d="M 420.216 1359.76 C 420.881 1337.26 438.853 1319.57 461.732 1321.56 C 472.326 1322.45 482.094 1327.64 488.778 1335.91 C 498.68 1348.38 496.884 1367.23 497.05 1382.31 C 497.546 1427.5 496.397 1472.92 497.203 1518.08 L 509.709 1518.06 L 611.061 1518.03 C 621.974 1518.03 654.641 1517.28 663.458 1519.38 C 668.626 1521.74 673.191 1523.76 677.302 1527.72 C 704.098 1553.53 687.299 1593.8 650.075 1594.04 C 594.468 1594.41 540.579 1594.4 485.125 1594.3 C 472.23 1594.33 455.901 1594.67 444.529 1587.95 C 433.489 1581.42 421.115 1566.4 421.041 1553.06 C 419.492 1547.19 420.047 1505.18 420.043 1495.91 C 419.803 1450.52 419.861 1405.14 420.216 1359.76 z"/>
<path transform="translate(0,0)" fill="rgb(0,0,0)" d="M 420.216 1359.76 C 423.865 1367.59 423.291 1410.22 422.537 1420.03 C 420.72 1443.68 427.935 1536.42 421.041 1553.06 C 419.492 1547.19 420.047 1505.18 420.043 1495.91 C 419.803 1450.52 419.861 1405.14 420.216 1359.76 z"/>
<path transform="translate(0,0)" fill="rgb(0,0,0)" d="M 509.709 1518.06 L 611.061 1518.03 C 621.974 1518.03 654.641 1517.28 663.458 1519.38 C 657.396 1521.34 638.141 1522.56 631.788 1521.93 C 612.744 1520.05 520.975 1526.04 509.709 1518.06 z"/>
<path transform="translate(0,0)" fill="rgb(36,36,36)" d="M 1549.43 1518.71 C 1548.62 1505.7 1548.67 1491.4 1548.87 1478.28 C 1549.5 1437.08 1547.42 1395.37 1550.03 1354.31 C 1551.29 1334.49 1567.28 1322.01 1586.49 1321.57 C 1596.32 1321.3 1605.83 1325.03 1612.86 1331.9 C 1621.39 1340.19 1623.95 1350.35 1623.98 1361.85 C 1624.15 1421.99 1623.56 1482.04 1624.11 1542.18 C 1624.32 1565.81 1612.46 1585.33 1588.94 1592.19 C 1573.51 1595.03 1557.14 1594.35 1541.45 1594.33 C 1492.6 1594.28 1443.74 1594.52 1394.9 1594.15 C 1382.48 1594.06 1371.63 1591.95 1362.65 1582.66 C 1355.35 1575.04 1351.55 1564.73 1352.14 1554.19 C 1353.12 1534.05 1365.09 1522.58 1384.16 1518.34 C 1414.5 1516.69 1452.73 1518.89 1483.83 1518.07 C 1495.38 1517.77 1540.1 1517.36 1549.43 1518.71 z"/>
<path transform="translate(0,0)" fill="rgb(0,0,0)" d="M 1384.16 1518.34 C 1414.5 1516.69 1452.73 1518.89 1483.83 1518.07 C 1495.38 1517.77 1540.1 1517.36 1549.43 1518.71 C 1541.05 1524.97 1443.86 1520.57 1425.19 1521.95 C 1415.88 1522.64 1393.17 1521.88 1384.16 1518.34 z"/>
</svg>